<svg width="64" height="64" viewBox="0 0 64 64" fill="none" xmlns="http://www.w3.org/2000/svg">
<path d="M54.7627 21.6586C56.5387 23.432 55.4027 26.416 52.9973 26.6506L52.6907 26.6666L10.6667 26.6666C9.98699 26.6659 9.33325 26.4056 8.83902 25.939C8.34479 25.4725 8.04738 24.8348 8.00755 24.1563C7.96771 23.4777 8.18847 22.8096 8.62471 22.2884C9.06095 21.7672 9.67975 21.4323 10.3547 21.352L10.6667 21.3333L46.896 21.3333L40.7813 15.2186C40.3031 14.7388 40.0254 14.0948 40.0047 13.4176C39.984 12.7404 40.2219 12.0807 40.67 11.5726C41.1181 11.0644 41.7428 10.7458 42.4173 10.6816C43.0917 10.6173 43.7654 10.8122 44.3013 11.2266L44.552 11.448L54.7653 21.6613L54.7627 21.6586ZM56 40C55.9999 40.6531 55.7601 41.2835 55.3261 41.7716C54.8921 42.2597 54.294 42.5716 53.6453 42.648L53.3333 42.6666L17.104 42.6666L23.2187 48.7813C23.6969 49.2612 23.9746 49.9051 23.9953 50.5823C24.016 51.2595 23.7781 51.9192 23.33 52.4274C22.8819 52.9356 22.2572 53.2541 21.5827 53.3184C20.9083 53.3826 20.2346 53.1877 19.6987 52.7733L19.448 52.552L9.23467 42.3386C7.46133 40.568 8.59733 37.584 11.0027 37.3493L11.3093 37.3333L53.3333 37.3333C54.0406 37.3333 54.7189 37.6143 55.219 38.1144C55.719 38.6145 56 39.2927 56 40Z" fill="black"/>
</svg>
